<?xml version="1.0" encoding="utf-8"?>
<!-- Generator: Adobe Illustrator 25.4.1, SVG Export Plug-In . SVG Version: 6.00 Build 0)  -->
<svg version="1.1" id="Capa_1" xmlns="http://www.w3.org/2000/svg" xmlns:xlink="http://www.w3.org/1999/xlink" x="0px" y="0px"
	 viewBox="0 0 462.09 105.06" style="enable-background:new 0 0 462.09 105.06;" xml:space="preserve">
<style type="text/css">
	.st0{fill:#FFFFFF;}
	.st1{fill:#1EA0CD;}
</style>
<g>
	<path class="st0" d="M67.55,43.49c0.05-13.08,9.19-21.88,22.77-21.91h8.49V16h-8.7c-8.05,0-15.12,2.78-20.18,7.61
		c-5.07,4.83-8.11,11.73-8.11,19.88c0,8.14,3.03,15.04,8.11,19.86c5.06,4.86,12.13,7.63,20.18,7.63h8.7v-5.58h-8.49
		C76.74,65.37,67.59,56.57,67.55,43.49z"/>
	<path class="st0" d="M149.16,44.59l-0.02,0.56c-0.21,11.69-10.36,21.81-23.2,21.8c-13.19-0.01-23.02-10.41-23.02-22.57
		c0-12.31,9.51-23.23,23.02-23.25c6.8,0,12.74,2.84,16.65,7.33l-29.61,21.02l3.47,3.04l34.42-22.89l-0.29-0.46
		C145.54,21.33,136.54,16,125.93,16c-8.53,0-15.72,3.24-20.78,8.38c-5.05,5.14-7.97,12.18-7.97,19.78c0,7.87,3.1,14.86,8.36,19.88
		c5.26,5.02,12.68,8.06,21.29,8.06c15.67-0.01,27.7-12.61,28.05-26.93l0.01-0.59H149.16z"/>
	<path class="st0" d="M22.33,16c-6.2,0-11.8,2.23-15.83,6.14C2.47,26.04,0,31.62,0,38.27v32.72h5.51V38.83
		c0.02-10.75,7.63-17.67,16.82-17.68c9.19,0.01,16.8,6.93,16.83,17.68v32.16h5.5V38.27c0-6.65-2.45-12.23-6.49-16.13
		C34.14,18.23,28.53,16,22.33,16z"/>
	<rect x="51.73" y="17.12" class="st0" width="5.52" height="53.87"/>
</g>
<g>
	<path class="st0" d="M195.53,44.47c-5.03-3.8-12.4-5.53-18.47-7.22c-3.04-0.83-5.77-1.65-7.66-2.66c-1.92-1.02-2.9-2.11-2.9-3.55
		c0.1-1.59,0.48-2.55,1.27-3.14c0.81-0.62,2.26-0.97,4.67-0.96h26V16.44h-24.29c-6.08,0.01-10.91,1.27-14.24,3.81
		c-3.33,2.53-5.1,6.37-5.09,11.22c-0.01,4.8,2.3,8.23,5.64,10.69c5.03,3.7,12.4,5.4,18.49,7.15c3.03,0.87,5.74,1.75,7.63,2.81
		c1.91,1.1,2.91,2.27,2.91,3.83c0,1.58-0.4,2.63-1.29,3.38c-0.88,0.73-2.37,1.17-4.66,1.17h-28.73v10.48h28.73
		c4.97,0,9.37-1.23,12.55-3.8c3.19-2.56,5.09-6.49,5.08-11.69C201.19,50.56,198.89,47,195.53,44.47z"/>
	<path class="st0" d="M441.81,15.33c-6.08,0-12.18,2.33-16.01,7.19c-3.86-4.86-9.95-7.19-16.04-7.19
		c-11.51,0.03-20.23,8.48-20.25,18.81v36.85h11.22V36.37c0.05-6.59,3.64-10.53,9.27-10.56c3.15,0.01,5.65,0.85,7.39,2.72
		c1.75,1.89,2.79,4.9,2.79,9.4v33.05h11.23V37.94c0-4.5,1.03-7.51,2.77-9.4c1.74-1.87,4.24-2.72,7.4-2.72
		c5.63,0.03,9.21,3.97,9.26,10.56v34.62h11.24V34.14C462.07,23.81,453.33,15.36,441.81,15.33z"/>
	<path class="st0" d="M375.1,22.42c-4.95-4.54-12.03-7.09-20.62-7.09c-8.92,0-16.2,3.06-21.2,8.09c-5,5.02-7.74,11.98-7.74,19.74
		c0,7.98,2.84,15.2,7.72,20.45c4.89,5.24,11.81,8.5,19.87,8.5c6.59-0.03,14.02-1.94,18.41-4.61v3.49h11.23V41.26
		C382.77,33.47,380.02,26.95,375.1,22.42z M371.54,54.69c-3.37,4.02-7.57,6.92-17.38,6.93c-10.2,0-17.36-8.04-17.37-17.69
		c0.02-9.88,6.72-18.11,17.49-18.11c8.95,0.02,17.27,4.92,17.27,14.57V54.69z"/>
	<path class="st0" d="M267.65,25.82V15.33h-2.88c-6.31-0.02-11.06,1.79-14.51,6.3v-5.19h-10.77v54.54h11.24V45.5
		c0-7.17,1.41-12.11,3.95-15.19c2.52-3.1,6.16-4.48,10.92-4.48L267.65,25.82z"/>
	<path class="st0" d="M311.57,45.38c-2.1,9.72-6.23,16.19-17.84,16.24c-10.12-0.02-17.37-7.26-17.38-17.91
		c0.01-10.65,7.26-17.88,17.38-17.89c5.78,0.01,8.39,1.49,11.58,4.48l-24.18,17.09l3.91,5.13l36.01-19.47l-0.25-0.49
		c-5.2-10.48-14.04-17.25-27.07-17.22c-7.76,0-15.03,2.9-20.37,7.9c-5.34,4.99-8.72,12.11-8.72,20.49c0,8.37,3.38,15.49,8.72,20.49
		c5.34,5,12.61,7.9,20.37,7.9h0.01c16.08,0,28.02-10.94,29.18-25.34l0.05-0.54l-11.26-1.36L311.57,45.38z"/>
	<path class="st0" d="M215.39,3.1c0,0-0.66-3.1-5.54-3.1c-4.89,0-5.69,3.1-5.69,3.1v50.09c0,5.37,1.52,9.84,4.4,12.96
		c2.9,3.12,7.15,4.85,12.42,4.85h14.08V60.51h-12.71c-2.51,0-4.26-0.43-5.32-1.33c-1.06-0.89-1.63-2.35-1.63-4.78V26.93h19.67V16.45
		h-19.67V3.1z"/>
</g>
<g>
	<path class="st1" d="M7.18,85.33H0v19.4h7.18c5.38,0,8.72-3.73,8.72-9.72C15.9,88.94,12.64,85.33,7.18,85.33z M13.64,95
		c0,4.68-2.42,7.47-6.46,7.47H2.26V87.58h4.92C11.29,87.58,13.64,90.28,13.64,95z"/>
	<rect x="22.9" y="85.32" class="st1" width="2.26" height="19.4"/>
	<path class="st1" d="M41.3,96.4h7.52c-0.61,3.89-3.34,6.38-7.06,6.38c-4.05,0-7.35-3.51-7.35-7.83c0-4.31,3.3-7.81,7.35-7.81
		c3.18,0,5.64,1.69,6.77,4.65l0.16,0.41h2.39l-0.29-0.85c-1.38-4.05-4.75-6.47-9.03-6.47c-5.3,0-9.61,4.51-9.61,10.06
		c0,5.56,4.31,10.09,9.61,10.09c2.95,0,5.5-1.24,7.17-3.45v3.13h2.26V94.14H41.3V96.4z"/>
	<rect x="58.68" y="85.32" class="st1" width="2.26" height="19.4"/>
	<polygon class="st1" points="67.28,87.58 73.37,87.58 73.37,104.72 75.63,104.72 75.63,87.58 81.74,87.58 81.74,85.33 67.28,85.33 
			"/>
	<path class="st1" d="M91.27,85.33l-7.45,19.4h2.43l2.4-6.24h7.19l2.4,6.24h2.43l-7.45-19.4H91.27z M89.51,96.23l2.72-7.13
		l2.74,7.13H89.51z"/>
	<polygon class="st1" points="108.9,85.33 106.65,85.33 106.65,104.72 119.33,104.72 119.33,102.47 108.9,102.47 	"/>
	<polygon class="st1" points="137.05,87.58 143.14,87.58 143.14,104.72 145.39,104.72 145.39,87.58 151.51,87.58 151.51,85.33 
		137.05,85.33 	"/>
	<polygon class="st1" points="170.92,93.44 160.03,93.44 160.03,85.33 157.77,85.33 157.77,104.72 160.03,104.72 160.03,95.72 
		170.92,95.72 170.92,104.72 173.18,104.72 173.18,85.33 170.92,85.33 	"/>
	<rect x="181.53" y="85.32" class="st1" width="2.26" height="19.4"/>
	<polygon class="st1" points="205.37,100.64 194.22,85.33 192.15,85.33 192.15,104.72 194.4,104.72 194.4,89.41 205.36,104.45 
		205.55,104.72 207.63,104.72 207.63,85.33 205.37,85.33 	"/>
	<polygon class="st1" points="230.25,85.33 227.08,85.33 218.06,94.47 218.06,85.33 215.8,85.33 215.8,104.72 218.06,104.72 
		218.06,97.64 221.04,94.64 228.3,104.72 231.09,104.72 222.65,93 	"/>
	<rect x="236.5" y="85.32" class="st1" width="2.26" height="19.4"/>
	<polygon class="st1" points="260.34,100.64 249.19,85.33 247.12,85.33 247.12,104.72 249.37,104.72 249.37,89.41 260.53,104.72 
		262.6,104.72 262.6,85.33 260.34,85.33 	"/>
	<path class="st1" d="M278.64,96.4h7.52c-0.61,3.89-3.34,6.38-7.06,6.38c-4.05,0-7.35-3.51-7.35-7.83c0-4.31,3.3-7.81,7.35-7.81
		c3.18,0,5.64,1.69,6.77,4.64l0.16,0.42h2.39l-0.29-0.85c-1.38-4.05-4.75-6.47-9.03-6.47c-5.3,0-9.61,4.51-9.61,10.06
		c0,5.56,4.31,10.09,9.61,10.09c2.95,0,5.5-1.24,7.17-3.45v3.13h2.26V94.14h-9.89V96.4z"/>
	<path class="st1" d="M313.97,85.33l-7.45,19.4h2.43l2.4-6.24h7.19l2.4,6.24h2.43l-7.45-19.4H313.97z M312.22,96.23l2.72-7.13
		l2.74,7.13H312.22z"/>
	<path class="st1" d="M335.87,85.33h-7.18v19.4h7.18c5.38,0,8.72-3.73,8.72-9.72C344.6,88.94,341.34,85.33,335.87,85.33z M342.34,95
		c0,4.68-2.42,7.47-6.46,7.47h-4.92V87.58h4.92C339.98,87.58,342.34,90.28,342.34,95z"/>
	<polygon class="st1" points="356.86,100.83 351.15,85.33 348.73,85.33 355.89,104.72 357.84,104.72 364.98,85.33 362.56,85.33 	"/>
	<rect x="370.99" y="85.32" class="st1" width="2.26" height="19.4"/>
	<path class="st1" d="M388.15,93.53c-4.04-0.81-4.87-1.87-4.87-3.2c0-1.94,1.82-3.24,4.53-3.24c2.76,0,4.48,1.44,4.48,3.76v0.64
		h2.26v-0.64c0-2.98-2.08-5.99-6.74-5.99c-4.06,0-6.79,2.2-6.79,5.47c0,3.62,3.38,4.76,6.68,5.41c4.36,0.89,5.13,1.83,5.13,3.49
		c0,2.22-1.91,3.55-5.1,3.55c-2.46,0-4.95-1.3-4.95-4.21v-0.64h-2.26v0.64c0,4.46,3.74,6.49,7.21,6.49c4.47,0,7.36-2.29,7.36-5.84
		C395.1,95.67,392.44,94.41,388.15,93.53z"/>
	<path class="st1" d="M410.53,84.88c-5.3,0-9.61,4.52-9.61,10.07c0,5.56,4.31,10.09,9.61,10.09c5.3,0,9.61-4.53,9.61-10.09
		C420.14,89.3,415.92,84.88,410.53,84.88z M417.85,94.95c0,4.32-3.29,7.83-7.33,7.83c-4.05,0-7.35-3.51-7.35-7.83
		c0-4.31,3.3-7.81,7.35-7.81C414.64,87.14,417.85,90.57,417.85,94.95z"/>
	<path class="st1" d="M440.84,101.89v-2.4c0-1.75-0.61-3.11-1.76-3.96c1.48-1,2.31-2.63,2.31-4.55c0-3.49-2.32-5.65-6.05-5.65h-8.28
		v19.4h2.26v-8.09h6.07c2.12,0,3.2,0.96,3.2,2.85v2.64c0,0.9,0.14,1.63,0.43,2.23l0.17,0.38h2.36l-0.36-0.88
		C441,103.38,440.84,102.47,440.84,101.89z M439.1,90.98c0,2.53-1.98,3.43-3.67,3.43h-6.12v-6.82h6.02
		C437.05,87.58,439.1,88.17,439.1,90.98z"/>
	<path class="st1" d="M455.14,93.53c-4.04-0.81-4.87-1.87-4.87-3.2c0-1.94,1.82-3.24,4.53-3.24c2.76,0,4.48,1.44,4.48,3.76v0.64
		h2.26v-0.64c0-2.98-2.08-5.99-6.73-5.99c-4.06,0-6.79,2.2-6.79,5.47c0,3.62,3.38,4.76,6.68,5.41c4.36,0.89,5.13,1.83,5.13,3.49
		c0,2.22-1.91,3.55-5.1,3.55c-2.46,0-4.95-1.3-4.95-4.21v-0.64h-2.26v0.64c0,4.46,3.74,6.49,7.21,6.49c4.47,0,7.36-2.29,7.36-5.84
		C462.09,95.67,459.43,94.41,455.14,93.53z"/>
</g>
</svg>
